G04 #@! TF.FileFunction,Legend,Top*
%FSLAX46Y46*%
G04 Gerber Fmt 4.6, Leading zero omitted, Abs format (unit mm)*
G04 Created by KiCad (PCBNEW 4.0.1-stable) date 2017/04/29 18:05:00*
%MOMM*%
G01*
G04 APERTURE LIST*
%ADD10C,0.100000*%
%ADD11C,0.200000*%
%ADD12C,0.066040*%
%ADD13C,0.101600*%
%ADD14C,0.152400*%
%ADD15C,0.150000*%
%ADD16C,0.076200*%
%ADD17C,0.127000*%
G04 APERTURE END LIST*
D10*
D11*
X144738096Y-113500000D02*
X144642858Y-113452381D01*
X144500001Y-113452381D01*
X144357143Y-113500000D01*
X144261905Y-113595238D01*
X144214286Y-113690476D01*
X144166667Y-113880952D01*
X144166667Y-114023810D01*
X144214286Y-114214286D01*
X144261905Y-114309524D01*
X144357143Y-114404762D01*
X144500001Y-114452381D01*
X144595239Y-114452381D01*
X144738096Y-114404762D01*
X144785715Y-114357143D01*
X144785715Y-114023810D01*
X144595239Y-114023810D01*
X145214286Y-114452381D02*
X145214286Y-113452381D01*
X145785715Y-114452381D01*
X145785715Y-113452381D01*
X146261905Y-114452381D02*
X146261905Y-113452381D01*
X146500000Y-113452381D01*
X146642858Y-113500000D01*
X146738096Y-113595238D01*
X146785715Y-113690476D01*
X146833334Y-113880952D01*
X146833334Y-114023810D01*
X146785715Y-114214286D01*
X146738096Y-114309524D01*
X146642858Y-114404762D01*
X146500000Y-114452381D01*
X146261905Y-114452381D01*
X144500000Y-110952381D02*
X144690477Y-110952381D01*
X144785715Y-111000000D01*
X144880953Y-111095238D01*
X144928572Y-111285714D01*
X144928572Y-111619048D01*
X144880953Y-111809524D01*
X144785715Y-111904762D01*
X144690477Y-111952381D01*
X144500000Y-111952381D01*
X144404762Y-111904762D01*
X144309524Y-111809524D01*
X144261905Y-111619048D01*
X144261905Y-111285714D01*
X144309524Y-111095238D01*
X144404762Y-111000000D01*
X144500000Y-110952381D01*
X145357143Y-110952381D02*
X145357143Y-111761905D01*
X145404762Y-111857143D01*
X145452381Y-111904762D01*
X145547619Y-111952381D01*
X145738096Y-111952381D01*
X145833334Y-111904762D01*
X145880953Y-111857143D01*
X145928572Y-111761905D01*
X145928572Y-110952381D01*
X146261905Y-110952381D02*
X146833334Y-110952381D01*
X146547619Y-111952381D02*
X146547619Y-110952381D01*
X144166667Y-108452381D02*
X144500000Y-109452381D01*
X144833334Y-108452381D01*
X145166667Y-109452381D02*
X145166667Y-108452381D01*
X145404762Y-108452381D01*
X145547620Y-108500000D01*
X145642858Y-108595238D01*
X145690477Y-108690476D01*
X145738096Y-108880952D01*
X145738096Y-109023810D01*
X145690477Y-109214286D01*
X145642858Y-109309524D01*
X145547620Y-109404762D01*
X145404762Y-109452381D01*
X145166667Y-109452381D01*
X146166667Y-109452381D02*
X146166667Y-108452381D01*
X146404762Y-108452381D01*
X146547620Y-108500000D01*
X146642858Y-108595238D01*
X146690477Y-108690476D01*
X146738096Y-108880952D01*
X146738096Y-109023810D01*
X146690477Y-109214286D01*
X146642858Y-109309524D01*
X146547620Y-109404762D01*
X146404762Y-109452381D01*
X146166667Y-109452381D01*
X145690476Y-116366667D02*
X146166667Y-116366667D01*
X145595238Y-116652381D02*
X145928571Y-115652381D01*
X146261905Y-116652381D01*
X146595238Y-116652381D02*
X146595238Y-115652381D01*
X147166667Y-116652381D01*
X147166667Y-115652381D01*
X147595238Y-116366667D02*
X148071429Y-116366667D01*
X147500000Y-116652381D02*
X147833333Y-115652381D01*
X148166667Y-116652381D01*
X148976191Y-116652381D02*
X148500000Y-116652381D01*
X148500000Y-115652381D01*
X149500000Y-115652381D02*
X149690477Y-115652381D01*
X149785715Y-115700000D01*
X149880953Y-115795238D01*
X149928572Y-115985714D01*
X149928572Y-116319048D01*
X149880953Y-116509524D01*
X149785715Y-116604762D01*
X149690477Y-116652381D01*
X149500000Y-116652381D01*
X149404762Y-116604762D01*
X149309524Y-116509524D01*
X149261905Y-116319048D01*
X149261905Y-115985714D01*
X149309524Y-115795238D01*
X149404762Y-115700000D01*
X149500000Y-115652381D01*
X150880953Y-115700000D02*
X150785715Y-115652381D01*
X150642858Y-115652381D01*
X150500000Y-115700000D01*
X150404762Y-115795238D01*
X150357143Y-115890476D01*
X150309524Y-116080952D01*
X150309524Y-116223810D01*
X150357143Y-116414286D01*
X150404762Y-116509524D01*
X150500000Y-116604762D01*
X150642858Y-116652381D01*
X150738096Y-116652381D01*
X150880953Y-116604762D01*
X150928572Y-116557143D01*
X150928572Y-116223810D01*
X150738096Y-116223810D01*
X152119048Y-116652381D02*
X152119048Y-115652381D01*
X152452382Y-116366667D01*
X152785715Y-115652381D01*
X152785715Y-116652381D01*
X153261905Y-116652381D02*
X153261905Y-115652381D01*
X154309524Y-116557143D02*
X154261905Y-116604762D01*
X154119048Y-116652381D01*
X154023810Y-116652381D01*
X153880952Y-116604762D01*
X153785714Y-116509524D01*
X153738095Y-116414286D01*
X153690476Y-116223810D01*
X153690476Y-116080952D01*
X153738095Y-115890476D01*
X153785714Y-115795238D01*
X153880952Y-115700000D01*
X154023810Y-115652381D01*
X154119048Y-115652381D01*
X154261905Y-115700000D01*
X154309524Y-115747619D01*
X145642857Y-117585714D02*
X145880952Y-118252381D01*
X146119048Y-117585714D01*
X147023810Y-118252381D02*
X146452381Y-118252381D01*
X146738095Y-118252381D02*
X146738095Y-117252381D01*
X146642857Y-117395238D01*
X146547619Y-117490476D01*
X146452381Y-117538095D01*
X147452381Y-118157143D02*
X147500000Y-118204762D01*
X147452381Y-118252381D01*
X147404762Y-118204762D01*
X147452381Y-118157143D01*
X147452381Y-118252381D01*
X148119047Y-117252381D02*
X148214286Y-117252381D01*
X148309524Y-117300000D01*
X148357143Y-117347619D01*
X148404762Y-117442857D01*
X148452381Y-117633333D01*
X148452381Y-117871429D01*
X148404762Y-118061905D01*
X148357143Y-118157143D01*
X148309524Y-118204762D01*
X148214286Y-118252381D01*
X148119047Y-118252381D01*
X148023809Y-118204762D01*
X147976190Y-118157143D01*
X147928571Y-118061905D01*
X147880952Y-117871429D01*
X147880952Y-117633333D01*
X147928571Y-117442857D01*
X147976190Y-117347619D01*
X148023809Y-117300000D01*
X148119047Y-117252381D01*
D12*
X154398780Y-112297560D02*
X154398780Y-111949580D01*
X154398780Y-111949580D02*
X153601220Y-111949580D01*
X153601220Y-112297560D02*
X153601220Y-111949580D01*
X154398780Y-112297560D02*
X153601220Y-112297560D01*
X154398780Y-111050420D02*
X154398780Y-110702440D01*
X154398780Y-110702440D02*
X153601220Y-110702440D01*
X153601220Y-111050420D02*
X153601220Y-110702440D01*
X154398780Y-111050420D02*
X153601220Y-111050420D01*
X154797560Y-112899540D02*
X154797560Y-110100460D01*
X154797560Y-110100460D02*
X153202440Y-110100460D01*
X153202440Y-112899540D02*
X153202440Y-110100460D01*
X154797560Y-112899540D02*
X153202440Y-112899540D01*
D13*
X153652020Y-112223900D02*
X153652020Y-110776100D01*
X154347980Y-110776100D02*
X154347980Y-112223900D01*
D12*
X142246000Y-111246000D02*
X142246000Y-111754000D01*
X142246000Y-111754000D02*
X142754000Y-111754000D01*
X142754000Y-111246000D02*
X142754000Y-111754000D01*
X142246000Y-111246000D02*
X142754000Y-111246000D01*
X142246000Y-108706000D02*
X142246000Y-109214000D01*
X142246000Y-109214000D02*
X142754000Y-109214000D01*
X142754000Y-108706000D02*
X142754000Y-109214000D01*
X142246000Y-108706000D02*
X142754000Y-108706000D01*
X142246000Y-113786000D02*
X142246000Y-114294000D01*
X142246000Y-114294000D02*
X142754000Y-114294000D01*
X142754000Y-113786000D02*
X142754000Y-114294000D01*
X142246000Y-113786000D02*
X142754000Y-113786000D01*
D14*
X143770000Y-108325000D02*
X143770000Y-109595000D01*
X143770000Y-109595000D02*
X143135000Y-110230000D01*
X143135000Y-110230000D02*
X141865000Y-110230000D01*
X141865000Y-110230000D02*
X141230000Y-109595000D01*
X143135000Y-110230000D02*
X143770000Y-110865000D01*
X143770000Y-110865000D02*
X143770000Y-112135000D01*
X143770000Y-112135000D02*
X143135000Y-112770000D01*
X143135000Y-112770000D02*
X141865000Y-112770000D01*
X141865000Y-112770000D02*
X141230000Y-112135000D01*
X141230000Y-112135000D02*
X141230000Y-110865000D01*
X141230000Y-110865000D02*
X141865000Y-110230000D01*
X143135000Y-107690000D02*
X141865000Y-107690000D01*
X143770000Y-108325000D02*
X143135000Y-107690000D01*
X141865000Y-107690000D02*
X141230000Y-108325000D01*
X141230000Y-109595000D02*
X141230000Y-108325000D01*
X143135000Y-112770000D02*
X143770000Y-113405000D01*
X143770000Y-113405000D02*
X143770000Y-114675000D01*
X143770000Y-114675000D02*
X143135000Y-115310000D01*
X143135000Y-115310000D02*
X141865000Y-115310000D01*
X141865000Y-115310000D02*
X141230000Y-114675000D01*
X141230000Y-114675000D02*
X141230000Y-113405000D01*
X141230000Y-113405000D02*
X141865000Y-112770000D01*
D15*
X152750000Y-110000000D02*
X152750000Y-113000000D01*
X152750000Y-113000000D02*
X148750000Y-113000000D01*
X148750000Y-113000000D02*
X148750000Y-110000000D01*
X148750000Y-110000000D02*
X152750000Y-110000000D01*
D16*
X153830667Y-114362857D02*
X153782286Y-114411238D01*
X153637143Y-114459619D01*
X153540381Y-114459619D01*
X153395239Y-114411238D01*
X153298477Y-114314476D01*
X153250096Y-114217714D01*
X153201715Y-114024190D01*
X153201715Y-113879048D01*
X153250096Y-113685524D01*
X153298477Y-113588762D01*
X153395239Y-113492000D01*
X153540381Y-113443619D01*
X153637143Y-113443619D01*
X153782286Y-113492000D01*
X153830667Y-113540381D01*
X154798286Y-114459619D02*
X154217715Y-114459619D01*
X154508001Y-114459619D02*
X154508001Y-113443619D01*
X154411239Y-113588762D01*
X154314477Y-113685524D01*
X154217715Y-113733905D01*
D17*
X141562619Y-116574524D02*
X141562619Y-115304524D01*
X142046428Y-115304524D01*
X142167381Y-115365000D01*
X142227857Y-115425476D01*
X142288333Y-115546429D01*
X142288333Y-115727857D01*
X142227857Y-115848810D01*
X142167381Y-115909286D01*
X142046428Y-115969762D01*
X141562619Y-115969762D01*
X143497857Y-116574524D02*
X142772143Y-116574524D01*
X143135000Y-116574524D02*
X143135000Y-115304524D01*
X143014048Y-115485952D01*
X142893095Y-115606905D01*
X142772143Y-115667381D01*
D15*
X150238095Y-113452381D02*
X150238095Y-114261905D01*
X150285714Y-114357143D01*
X150333333Y-114404762D01*
X150428571Y-114452381D01*
X150619048Y-114452381D01*
X150714286Y-114404762D01*
X150761905Y-114357143D01*
X150809524Y-114261905D01*
X150809524Y-113452381D01*
X151809524Y-114452381D02*
X151238095Y-114452381D01*
X151523809Y-114452381D02*
X151523809Y-113452381D01*
X151428571Y-113595238D01*
X151333333Y-113690476D01*
X151238095Y-113738095D01*
M02*
