G04 #@! TF.FileFunction,Copper,L2,Bot,Signal*
%FSLAX46Y46*%
G04 Gerber Fmt 4.6, Leading zero omitted, Abs format (unit mm)*
G04 Created by KiCad (PCBNEW 4.0.1-stable) date 2017/04/29 18:05:00*
%MOMM*%
G01*
G04 APERTURE LIST*
%ADD10C,0.100000*%
%ADD11R,3.048000X1.524000*%
%ADD12O,3.048000X1.524000*%
%ADD13C,1.224000*%
%ADD14C,0.800000*%
%ADD15C,0.300000*%
%ADD16C,0.254000*%
G04 APERTURE END LIST*
D10*
D11*
X142500000Y-108960000D03*
D12*
X142500000Y-111500000D03*
X142500000Y-114040000D03*
D13*
X150000000Y-111500000D03*
D14*
X151250000Y-115750000D03*
X153250000Y-109750000D03*
X146500000Y-106000000D03*
D15*
X150000000Y-111500000D02*
X150000000Y-114500000D01*
X150000000Y-114500000D02*
X151250000Y-115750000D01*
X150000000Y-111500000D02*
X150000000Y-109500000D01*
X150000000Y-109500000D02*
X146500000Y-106000000D01*
D16*
G36*
X155691091Y-105289041D02*
X155365372Y-106073459D01*
X155364630Y-106922815D01*
X155688980Y-107707800D01*
X156289041Y-108308909D01*
X157073459Y-108634628D01*
X157922815Y-108635370D01*
X158707800Y-108311020D01*
X159290000Y-107729835D01*
X159290000Y-115271143D01*
X158710959Y-114691091D01*
X157926541Y-114365372D01*
X157077185Y-114364630D01*
X156292200Y-114688980D01*
X155691091Y-115289041D01*
X155365372Y-116073459D01*
X155364630Y-116922815D01*
X155688980Y-117707800D01*
X156270165Y-118290000D01*
X140710000Y-118290000D01*
X140710000Y-114978136D01*
X141086059Y-115282059D01*
X141611000Y-115437000D01*
X142373000Y-115437000D01*
X142373000Y-114167000D01*
X142627000Y-114167000D01*
X142627000Y-115437000D01*
X143389000Y-115437000D01*
X143913941Y-115282059D01*
X144339630Y-114938026D01*
X144601260Y-114457277D01*
X144616220Y-114383070D01*
X144493720Y-114167000D01*
X142627000Y-114167000D01*
X142373000Y-114167000D01*
X142353000Y-114167000D01*
X142353000Y-113913000D01*
X142373000Y-113913000D01*
X142373000Y-113893000D01*
X142627000Y-113893000D01*
X142627000Y-113913000D01*
X144493720Y-113913000D01*
X144616220Y-113696930D01*
X144601260Y-113622723D01*
X144339630Y-113141974D01*
X143913941Y-112797941D01*
X143854338Y-112780349D01*
X144292125Y-112487828D01*
X144369890Y-112371444D01*
X149308161Y-112371444D01*
X149359155Y-112598113D01*
X149828166Y-112759764D01*
X150323337Y-112729629D01*
X150640845Y-112598113D01*
X150691839Y-112371444D01*
X150000000Y-111679605D01*
X149308161Y-112371444D01*
X144369890Y-112371444D01*
X144594957Y-112034609D01*
X144701297Y-111500000D01*
X144667118Y-111328166D01*
X148740236Y-111328166D01*
X148770371Y-111823337D01*
X148901887Y-112140845D01*
X149128556Y-112191839D01*
X149820395Y-111500000D01*
X150179605Y-111500000D01*
X150871444Y-112191839D01*
X151098113Y-112140845D01*
X151259764Y-111671834D01*
X151229629Y-111176663D01*
X151098113Y-110859155D01*
X150871444Y-110808161D01*
X150179605Y-111500000D01*
X149820395Y-111500000D01*
X149128556Y-110808161D01*
X148901887Y-110859155D01*
X148740236Y-111328166D01*
X144667118Y-111328166D01*
X144594957Y-110965391D01*
X144369891Y-110628556D01*
X149308161Y-110628556D01*
X150000000Y-111320395D01*
X150691839Y-110628556D01*
X150640845Y-110401887D01*
X150171834Y-110240236D01*
X149676663Y-110270371D01*
X149359155Y-110401887D01*
X149308161Y-110628556D01*
X144369891Y-110628556D01*
X144292125Y-110512172D01*
X144066534Y-110361437D01*
X144259317Y-110325162D01*
X144475441Y-110186090D01*
X144620431Y-109973890D01*
X144671440Y-109722000D01*
X144671440Y-108198000D01*
X144627162Y-107962683D01*
X144488090Y-107746559D01*
X144275890Y-107601569D01*
X144024000Y-107550560D01*
X140976000Y-107550560D01*
X140740683Y-107594838D01*
X140710000Y-107614582D01*
X140710000Y-104710000D01*
X156271143Y-104710000D01*
X155691091Y-105289041D01*
X155691091Y-105289041D01*
G37*
X155691091Y-105289041D02*
X155365372Y-106073459D01*
X155364630Y-106922815D01*
X155688980Y-107707800D01*
X156289041Y-108308909D01*
X157073459Y-108634628D01*
X157922815Y-108635370D01*
X158707800Y-108311020D01*
X159290000Y-107729835D01*
X159290000Y-115271143D01*
X158710959Y-114691091D01*
X157926541Y-114365372D01*
X157077185Y-114364630D01*
X156292200Y-114688980D01*
X155691091Y-115289041D01*
X155365372Y-116073459D01*
X155364630Y-116922815D01*
X155688980Y-117707800D01*
X156270165Y-118290000D01*
X140710000Y-118290000D01*
X140710000Y-114978136D01*
X141086059Y-115282059D01*
X141611000Y-115437000D01*
X142373000Y-115437000D01*
X142373000Y-114167000D01*
X142627000Y-114167000D01*
X142627000Y-115437000D01*
X143389000Y-115437000D01*
X143913941Y-115282059D01*
X144339630Y-114938026D01*
X144601260Y-114457277D01*
X144616220Y-114383070D01*
X144493720Y-114167000D01*
X142627000Y-114167000D01*
X142373000Y-114167000D01*
X142353000Y-114167000D01*
X142353000Y-113913000D01*
X142373000Y-113913000D01*
X142373000Y-113893000D01*
X142627000Y-113893000D01*
X142627000Y-113913000D01*
X144493720Y-113913000D01*
X144616220Y-113696930D01*
X144601260Y-113622723D01*
X144339630Y-113141974D01*
X143913941Y-112797941D01*
X143854338Y-112780349D01*
X144292125Y-112487828D01*
X144369890Y-112371444D01*
X149308161Y-112371444D01*
X149359155Y-112598113D01*
X149828166Y-112759764D01*
X150323337Y-112729629D01*
X150640845Y-112598113D01*
X150691839Y-112371444D01*
X150000000Y-111679605D01*
X149308161Y-112371444D01*
X144369890Y-112371444D01*
X144594957Y-112034609D01*
X144701297Y-111500000D01*
X144667118Y-111328166D01*
X148740236Y-111328166D01*
X148770371Y-111823337D01*
X148901887Y-112140845D01*
X149128556Y-112191839D01*
X149820395Y-111500000D01*
X150179605Y-111500000D01*
X150871444Y-112191839D01*
X151098113Y-112140845D01*
X151259764Y-111671834D01*
X151229629Y-111176663D01*
X151098113Y-110859155D01*
X150871444Y-110808161D01*
X150179605Y-111500000D01*
X149820395Y-111500000D01*
X149128556Y-110808161D01*
X148901887Y-110859155D01*
X148740236Y-111328166D01*
X144667118Y-111328166D01*
X144594957Y-110965391D01*
X144369891Y-110628556D01*
X149308161Y-110628556D01*
X150000000Y-111320395D01*
X150691839Y-110628556D01*
X150640845Y-110401887D01*
X150171834Y-110240236D01*
X149676663Y-110270371D01*
X149359155Y-110401887D01*
X149308161Y-110628556D01*
X144369891Y-110628556D01*
X144292125Y-110512172D01*
X144066534Y-110361437D01*
X144259317Y-110325162D01*
X144475441Y-110186090D01*
X144620431Y-109973890D01*
X144671440Y-109722000D01*
X144671440Y-108198000D01*
X144627162Y-107962683D01*
X144488090Y-107746559D01*
X144275890Y-107601569D01*
X144024000Y-107550560D01*
X140976000Y-107550560D01*
X140740683Y-107594838D01*
X140710000Y-107614582D01*
X140710000Y-104710000D01*
X156271143Y-104710000D01*
X155691091Y-105289041D01*
M02*
